<svg width="40" height="40" viewBox="0 0 40 40" fill="none" xmlns="http://www.w3.org/2000/svg">
<circle cx="20" cy="20" r="20" fill="white"/>
<path d="M13.4 14.5182L16.36 12.3333H19.5667H27.9867C29.4668 12.3333 30.6667 13.5331 30.6667 15.0133V18.7899C30.6667 19.3349 30.2249 19.7766 29.68 19.7766V24.9003V29.536V30.9999H21.7867V29.536V28.9883C21.7867 27.8251 22.4324 26.758 23.4629 26.2184L25.98 24.9003V21.9725V19.7766H23.76H19.5667H16.36L13.4 17.5917H10.9333V16.6157H6.5608C6.25108 16.6157 6 16.3647 6 16.0549C6 15.7452 6.25108 15.4941 6.5608 15.4941H10.9333V14.5182H13.4Z" fill="white"/>
<path d="M13.4 14.5182L16.36 12.3333H19.5667V19.7766H23.76H25.98H29.68V24.9003V29.536V30.9999H21.7867V29.536H29.68V24.9003H25.98V21.9725V19.7766H23.76H19.5667H16.36V12.3333L13.4 14.5182H10.9333V15.4941V16.6157H6.5608C6.25108 16.6157 6 16.3647 6 16.0549C6 15.7452 6.25108 15.4941 6.5608 15.4941H10.9333V14.5182H13.4Z" fill="white"/>
<path d="M16.36 12.3333L13.4 14.5182M16.36 12.3333V19.7766M16.36 12.3333H19.5667M13.4 14.5182H10.9333V15.4941M13.4 14.5182V17.5917M13.4 17.5917H10.9333V16.6157M13.4 17.5917L16.36 19.7766M16.36 19.7766H19.5667M19.5667 12.3333H27.9867C29.4668 12.3333 30.6667 13.5331 30.6667 15.0133V18.7899C30.6667 19.3349 30.2249 19.7766 29.68 19.7766V19.7766M19.5667 12.3333V19.7766M19.5667 19.7766H23.76M25.98 19.7766H29.68M25.98 19.7766V21.9725M25.98 19.7766H23.76M25.98 24.9003H29.68M25.98 24.9003V21.9725M25.98 24.9003L23.4629 26.2184C22.4324 26.758 21.7867 27.8251 21.7867 28.9883V29.536M29.68 24.9003V19.7766M29.68 24.9003V29.536M25.98 21.9725H25.5467C24.5599 21.9725 23.76 21.1726 23.76 20.1858V19.7766M10.9333 15.4941H6.5608C6.25108 15.4941 6 15.7452 6 16.0549V16.0549C6 16.3647 6.25108 16.6157 6.5608 16.6157H10.9333M10.9333 15.4941V16.6157M21.7867 29.536H29.68M21.7867 29.536V30.9999H29.68V29.536M23.8852 14.6493H28.3252M23.8852 16.1132H28.3252M23.8852 17.5771H28.3252" stroke="black" stroke-linecap="round" stroke-linejoin="round"/>
</svg>
